# xmcd
#
# Track frame offsets:
#	150
#	13715
#	25085
#	43660
#	59940
#	75305
#	95710
#	111565
#	129285
#	143002
#	161640
#	175534
#	190710
#	209627
#
# Disc length: 2921 seconds
#
# Revision: 1
# Processed by: cddbd v1.5.1PL0 Copyright (c) Steve Scherf et al.
# Submitted via: audiograbber 1.81.03
#
DISCID=bf0b670e
DTITLE=John and Mark Dujka - It's Country Time
DYEAR=1996
DGENRE=
TTITLE0=Streets Of Bakersfield
TTITLE1=Is It Time To Go?
TTITLE2=Linda On My Mind
TTITLE3=Stop The World And Let Me Off
TTITLE4=Mansion On The Hill
TTITLE5=Red, Red Wine
TTITLE6=Different Kind Of Flower
TTITLE7=Eight Seconds At A Time
TTITLE8=Rockin' With You
TTITLE9=South Of The Border
TTITLE10=I Didn't Know I'd Love You This Long
TTITLE11=Got No Reason Now For Going Home
TTITLE12=The Hand That Rocks The Cradle
TTITLE13=The Cattle Call
EXTD=
EXTT0=
EXTT1=
EXTT2=
EXTT3=
EXTT4=
EXTT5=
EXTT6=
EXTT7=
EXTT8=
EXTT9=
EXTT10=
EXTT11=
EXTT12=
EXTT13=
PLAYORDER=
